<?xml version="1.0" encoding="UTF-8" standalone="no"?>
<!-- Created with Inkscape (http://www.inkscape.org/) -->

<svg
   xmlns:dc="http://purl.org/dc/elements/1.1/"
   xmlns:cc="http://creativecommons.org/ns#"
   xmlns:rdf="http://www.w3.org/1999/02/22-rdf-syntax-ns#"
   xmlns:svg="http://www.w3.org/2000/svg"
   xmlns="http://www.w3.org/2000/svg"
   xmlns:sodipodi="http://sodipodi.sourceforge.net/DTD/sodipodi-0.dtd"
   xmlns:inkscape="http://www.inkscape.org/namespaces/inkscape"
   width="744.09448819"
   height="1052.3622047"
   id="svg9032"
   version="1.1"
   inkscape:version="0.48.2 r9819"
   sodipodi:docname="New document 3">
  <defs
     id="defs9034" />
  <sodipodi:namedview
     id="base"
     pagecolor="#ffffff"
     bordercolor="#666666"
     borderopacity="1.0"
     inkscape:pageopacity="0.0"
     inkscape:pageshadow="2"
     inkscape:zoom="0.35"
     inkscape:cx="375"
     inkscape:cy="520"
     inkscape:document-units="px"
     inkscape:current-layer="layer1"
     showgrid="false"
     inkscape:window-width="1366"
     inkscape:window-height="706"
     inkscape:window-x="-8"
     inkscape:window-y="-8"
     inkscape:window-maximized="1" />
  <metadata
     id="metadata9037">
    <rdf:RDF>
      <cc:Work
         rdf:about="">
        <dc:format>image/svg+xml</dc:format>
        <dc:type
           rdf:resource="http://purl.org/dc/dcmitype/StillImage" />
        <dc:title></dc:title>
      </cc:Work>
    </rdf:RDF>
  </metadata>
  <g
     inkscape:label="Layer 1"
     inkscape:groupmode="layer"
     id="layer1">
    <path
       inkscape:connector-curvature="0"
       style="fill:#414142;stroke:#d1d3d4;stroke-width:0.2760224"
       id="path13"
       d="m 357.15329,542.9998 c 0,0 0.6205,0.6215 1.37135,1.0038 0.75254,0.38229 1.68109,0.1431 1.68109,0.1431 0,0 -0.22039,1.53089 -0.57482,3.49396 -0.35344,1.9606 -0.92926,6.12262 -1.23951,9.9488 -0.30974,3.82628 -0.48646,12.72611 -0.26507,17.17689 0.22139,4.44895 0.57483,10.2384 0.97294,13.63497 0.3981,3.39657 1.06179,8.22921 1.4599,11.43442 0.39811,3.20607 0.35343,6.79486 0.2204,10.47847 -0.13303,3.68276 -0.39811,9.94965 -0.44279,12.67817 -0.0496,2.7269 -0.48547,7.65512 -0.39811,9.90277 0.0894,2.24925 0.70787,7.0332 0.8409,8.94757 0.13303,1.91266 0.0894,4.40293 -0.13303,6.5061 -0.2204,2.10413 -0.53015,3.9698 -0.2204,6.65047 0.30975,2.67908 0.92925,4.97617 1.37144,7.22371 0.44279,2.24936 0.44279,3.63759 0.57483,6.88882 0.13303,3.25485 1.15015,7.84648 2.43234,10.90999 1.28369,3.06169 2.43314,6.0764 2.43314,6.0764 0,0 0.0894,2.91731 0.0894,4.54475 0,1.62733 -0.13304,4.35425 -0.35344,6.31474 -0.2204,1.96222 -1.06179,4.30636 -1.63692,7.03316 -0.57582,2.7268 -1.54836,6.84271 -1.94647,9.47298 -0.39811,2.63123 -0.6195,8.6128 -0.66319,12.34341 -0.0496,3.73231 0.0496,10.33576 0.35344,14.01852 0.30975,3.68448 0.75254,9.61747 1.10597,13.30012 0.35344,3.68448 0.35344,8.37361 0.30975,11.1474 -0.0496,2.77464 -0.70786,10.81331 -0.92826,12.9183 -0.2214,2.10487 -0.88557,4.16202 -1.23871,6.36344 -0.35443,2.19884 -0.92926,3.10868 -1.2395,4.87964 -0.31075,1.76827 -0.39811,3.58794 -0.13303,5.07088 0.26507,1.48306 1.32637,3.15651 1.32637,3.15651 0,0 -0.13304,2.44239 -0.26508,3.87664 -0.13303,1.43259 -0.8409,4.35253 -0.8409,6.07383 0,1.72226 0.35443,4.11418 0.53115,5.50242 0.17672,1.3891 0.13303,3.01385 0,5.55015 -0.13304,2.53642 -0.79622,3.63664 -0.97294,5.69293 -0.17672,2.05703 0.35443,5.31009 1.37224,6.89055 1.01752,1.57777 3.36299,2.91731 4.51235,3.34953 1.15025,0.42931 1.50328,1.5309 3.53831,2.58512 2.03493,1.05294 5.08827,1.00276 7.1233,0.57454 2.03493,-0.43143 2.87552,-2.34419 2.87552,-2.34419 0,0 1.01742,1.00379 2.29962,1.5309 1.28209,0.5275 2.3004,-0.28728 2.3004,-0.28728 l 1.28398,-2.24765 c 0,0 0.97294,0.76459 1.59264,1.09948 0.6195,0.33528 2.16766,0.33528 2.96478,0 0.79721,-0.33529 1.15025,-1.67357 1.15025,-1.67357 0,0 0.57582,0 1.06169,0 0.48548,0 1.41563,0.0532 2.03503,-0.38227 0.6195,-0.42931 0.8409,-1.53079 0.8409,-1.53079 0,0 0.79622,0.0961 1.99075,-0.47949 1.19443,-0.57455 1.41642,-1.62573 1.37224,-2.58511 -0.0496,-0.95682 -1.061,-1.48123 -1.32638,-1.9605 -0.26507,-0.47949 -0.26507,-1.10119 -0.53114,-1.72129 -0.26507,-0.62045 -1.59264,-1.57703 -2.34468,-2.10499 -0.75353,-0.52539 -1.68189,-1.00271 -2.03503,-1.53079 -0.35343,-0.52539 -1.2395,-2.44245 -1.94726,-3.92546 -0.70688,-1.483 -3.62757,-4.30463 -4.60091,-5.64496 -0.97293,-1.34041 -3.09752,-3.53925 -3.80449,-4.87782 -0.70786,-1.34039 -1.68109,-5.16668 -1.90149,-6.41139 -0.22139,-1.24643 0.57483,-3.92271 0.75254,-5.35793 0.17671,-1.43424 -0.26508,-5.50242 -0.35443,-7.08374 -0.0893,-1.57691 -0.66319,-5.9798 -0.57483,-8.61012 0.0893,-2.63027 1.32717,-6.65043 2.07921,-9.61815 0.75253,-2.96612 4.82289,-14.01687 5.57573,-16.55243 0.75254,-2.53544 3.45145,-13.87414 4.07075,-16.26606 0.6205,-2.39193 3.53911,-12.48694 3.9815,-15.69387 0.44279,-3.20521 0.79622,-8.80149 1.23951,-12.91916 0.44278,-4.11321 0.30975,-12.19806 0.3981,-14.87703 0.0894,-2.67896 -0.44278,-6.17305 -0.48646,-7.32026 -0.0397,-1.14732 0.62049,-3.39657 0.57482,-5.30923 -0.0397,-1.91442 -1.19363,-4.21163 -1.63602,-5.26316 -0.44279,-1.05187 -1.10597,-4.40295 -1.37145,-6.26873 -0.26507,-1.86568 -0.0496,-4.40112 0,-7.27059 0.0397,-2.87032 -0.66318,-10.95601 -0.92926,-13.25236 -0.26507,-2.29538 -0.30975,-9.42512 -0.30975,-9.42512 0,0 0.88558,-3.44526 1.23941,-5.07088 0.35343,-1.62743 3.27294,-14.8327 4.02578,-18.23024 0.75254,-3.39475 4.29125,-20.47596 4.69015,-22.39032 0.39811,-1.91278 1.54837,-7.51075 2.16687,-10.71511 0.6205,-3.20521 1.63683,-11.67448 2.25702,-16.45842 0.6195,-4.78385 1.15026,-16.17128 1.23871,-18.46666 0.0893,-2.2972 0.35344,-8.70677 0.57483,-10.76562 0.22139,-2.05532 0.66319,-8.9937 0.70786,-11.05074 0.0397,-2.05884 -1.01752,-7.7995 -1.59174,-10.09499 -0.57582,-2.29624 -2.21195,-6.41127 -2.43314,-7.55848 -0.2214,-1.14817 -0.39812,-4.44907 -0.53115,-6.07649 -0.13303,-1.62647 -1.32716,-7.46377 -1.6811,-9.28074 -0.35442,-1.81784 -1.68189,-8.51626 -1.90308,-9.66433 -0.2214,-1.14732 -0.2214,-4.87878 -0.17672,-6.02865 0.0397,-1.14722 0.48548,-5.59884 0.57483,-7.32024 0.0893,-1.7213 -0.30975,-4.5456 -0.48647,-6.69832 -0.17672,-2.15357 -0.8409,-5.59894 -0.97294,-6.93752 -0.13303,-1.34039 -0.92826,-7.55944 -0.8409,-9.13807 0.0894,-1.57874 0.35443,-4.45078 0.70787,-5.8373 0.35343,-1.38823 1.81453,-6.0294 2.25691,-7.12887 0.44279,-1.09949 1.99076,-7.84649 2.29961,-9.37643 0.31075,-1.5309 0.0496,-3.97151 -0.0893,-4.92832 -0.13303,-0.95788 -0.0496,-2.77465 0.2204,-3.44527 0.26508,-0.66955 0.6205,-3.30089 0.70886,-4.4969 0.0893,-1.19591 -0.57583,-3.78015 -0.31075,-4.68998 0.26508,-0.90875 0.8409,-3.53923 1.06169,-4.40111 0.2214,-0.86177 0.0397,-4.64128 0.0397,-4.64128 0,0 -0.13303,-6.07553 0.31074,-8.18052 0.44279,-2.10573 1.9015,-5.5023 1.9015,-5.5023 0,0 -0.13303,6.02855 -0.17671,8.13342 -0.0397,2.10498 -0.0397,7.17587 -0.0397,9.61745 0,2.44147 0.30975,7.12803 0.79622,10.09403 0.48548,2.96772 1.10597,5.59895 1.45911,7.75166 0.35343,2.15357 2.56587,11.24305 2.56587,11.24305 0,0 0.0397,2.29796 -0.1777,3.63664 -0.2204,1.33953 -0.2204,4.25855 -0.30975,6.12422 -0.0894,1.86578 0.13303,4.0672 0.26507,5.11969 0.13303,1.05292 0.44279,2.4876 0.88458,3.92452 0.44278,1.43523 1.4599,2.67897 2.03493,4.20987 0.57482,1.5326 0.79622,3.11037 1.15025,5.5023 0.35443,2.39202 0.75254,4.44991 1.06169,6.36353 0.30976,1.91267 0.6205,2.77379 1.63772,6.12423 1.01741,3.34874 1.41562,4.73515 2.56578,7.65342 1.15104,2.91817 2.69781,6.98536 3.27373,8.42133 0.57483,1.43521 1.50408,3.68457 3.00827,7.17682 1.50408,3.49396 2.38886,5.93117 3.58328,8.85103 1.19443,2.91731 3.89384,8.03785 4.86708,10.19057 0.97294,2.15283 2.03503,4.54646 2.78707,7.2707 0.75254,2.72861 2.96557,7.89432 3.67185,8.94767 0.70786,1.05292 1.01741,2.4876 1.10597,4.06719 0.0893,1.57778 -0.17672,5.2631 -0.13304,8.03689 0.0397,2.77474 0,8.18308 0.13304,10.33409 0.13303,2.15283 0.84089,4.7361 1.10597,6.17303 0.26508,1.43425 1.28368,3.58794 1.41642,4.87963 0.13303,1.29073 0.22139,4.78383 0.35443,6.65047 0.13303,1.86653 0.0397,6.07554 0.17672,7.65512 0.13303,1.57949 0.70786,3.58964 1.37144,4.83435 0.66319,1.24375 2.07921,0.71655 2.38886,0.0534 0.31074,-0.67061 0.39811,-2.29719 0.48647,-2.966 0.0894,-0.67062 0.44278,-3.49321 0.53114,-4.3064 0.0894,-0.81371 0.0894,-3.87497 0.17672,-4.4969 0.0894,-0.6215 0.26508,-2.48845 0.70786,-2.7268 0.44279,-0.23921 1.01752,0.23707 1.37135,0.95681 0.35343,0.71654 0.48547,1.67346 0.75254,2.77379 0.26606,1.10022 0.31074,2.05703 0.44278,3.20606 0.13205,1.14903 0.39712,2.5363 0.75254,3.3009 0.35343,0.76672 0.70786,2.05703 1.10597,3.15821 0.39811,1.10205 0.53115,2.34419 0.79622,3.68447 0.26508,1.33869 1.28289,3.82714 2.56498,4.78395 1.28379,0.95681 1.76956,-0.38337 2.07931,-1.14817 0.31075,-0.76674 0.0894,-2.67897 0.17771,-3.97066 0.0894,-1.28988 -0.44278,-3.06254 -0.48647,-4.01754 -0.0397,-0.95788 -0.44278,-3.20703 -0.44278,-4.35423 0,-1.14732 -0.0894,-3.15823 -0.17672,-4.01936 -0.0894,-0.8607 -0.57582,-2.87118 -0.6205,-4.35253 -0.0397,-1.48475 1.01742,-0.0961 1.41563,0.38124 0.39811,0.47947 0.8409,1.62742 1.15094,2.34418 0.30976,0.71654 0.88458,2.67896 1.19374,3.87498 0.31074,1.1959 0.53114,3.11038 0.88557,4.16191 0.35344,1.05292 0.79523,2.34419 1.01831,3.25305 0.22139,0.90875 1.0617,3.82713 1.32717,4.73611 0.26508,0.90875 0.92826,1.96232 2.29961,2.82333 1.37134,0.86071 2.07921,-1.10204 2.38965,-1.72215 0.30975,-0.6215 0,-3.15822 -0.0496,-3.54009 -0.0397,-0.38123 -0.48548,-2.72681 -0.6195,-3.39486 -0.13304,-0.67062 -0.57483,-2.77465 -0.66319,-3.73231 -0.0893,-0.95895 -0.88458,-4.59258 -1.15025,-5.64497 -0.26508,-1.05292 -1.10597,-4.64128 -1.10597,-5.8877 0,-1.24385 1.10597,-0.42928 1.54836,0.14416 0.44278,0.57452 0.92926,2.39192 1.45911,3.82714 0.53114,1.43511 1.28447,4.11418 1.99234,5.88503 0.70786,1.77181 2.03503,5.2632 3.67105,7.32024 1.63682,2.05714 2.56578,0.76673 3.00817,0 0.44278,-0.7646 0.79622,-3.15822 0.75253,-4.59258 -0.0496,-1.43426 -0.62049,-4.01754 -0.97393,-5.2631 -0.35343,-1.24471 -1.15015,-3.49397 -1.59174,-4.97531 -0.44279,-1.48477 -1.45991,-4.25856 -1.90229,-5.50231 -0.44279,-1.24385 -1.76956,-4.30639 -1.99076,-5.40587 -0.22139,-1.10108 -0.35443,-2.63198 -0.48646,-3.54094 -0.13304,-0.90877 0,-2.63027 0.0496,-3.58794 0.0397,-0.95788 -0.39812,-3.63662 -0.39812,-3.63662 0,0 0.35344,0.14309 1.01752,0.28725 0.66319,0.1431 1.81383,1.14818 2.47742,1.62573 0.66318,0.47947 2.43304,1.81954 3.67174,2.63112 1.23871,0.81372 3.67106,1.24556 5.35295,1.29073 1.68189,0.0534 3.45145,-0.71654 4.42389,-2.44062 0.97194,-1.72396 -0.66319,-2.62855 -1.15025,-2.87118 -0.48547,-0.23706 -1.81374,-0.67062 -2.91971,-1.1943 -1.10597,-0.52538 -1.85811,-0.91089 -2.5217,-1.38908 -0.66318,-0.47734 -1.41641,-1.53079 -1.85959,-1.81784 -0.44279,-0.28725 -1.28289,-0.62149 -2.03414,-1.29083 -0.75353,-0.66956 -2.21195,-2.77379 -3.49652,-3.9697 -1.28289,-1.19601 -4.55742,-3.58794 -6.14996,-4.64128 -1.59265,-1.05292 -3.71692,-2.20056 -5.39802,-2.96601 -1.681,-0.76673 -2.78697,-1.91447 -3.18518,-2.58424 -0.39811,-0.67062 -0.35343,-2.43976 -0.66319,-3.34873 -0.30975,-0.90876 -1.19443,-2.48846 -1.94647,-3.87669 -0.75253,-1.38727 -2.69861,-5.97985 -3.49573,-8.46745 -0.79522,-2.48771 -1.59174,-7.41592 -2.0792,-9.76096 -0.48548,-2.34408 -1.81374,-10.8125 -2.43235,-14.16123 -0.62049,-3.34958 -2.3004,-12.34328 -2.87553,-15.21457 -0.57483,-2.87118 -1.59174,-7.32024 -2.21194,-9.95137 -0.6205,-2.63112 -2.03493,-8.18136 -2.61006,-10.43061 -0.57482,-2.24851 -1.41562,-4.54475 -2.34468,-6.88883 -0.92925,-2.34408 -2.25692,-5.2632 -3.05244,-6.69746 -0.79622,-1.43436 -1.99155,-4.01936 -2.52239,-5.40673 -0.53115,-1.38823 -1.4599,-4.97605 -1.59264,-6.26775 -0.13304,-1.29169 0.13303,-3.77929 0,-5.07184 -0.13304,-1.29074 -0.0894,-7.12803 -0.13304,-9.42512 -0.0397,-2.2972 -0.57482,-7.46377 -0.79522,-9.23387 -0.2214,-1.77084 -0.88558,-5.69365 -1.0617,-6.79484 -0.17671,-1.10034 -0.97294,-6.794 -1.19443,-8.27706 -0.2204,-1.48295 -0.13303,-5.31008 -0.0894,-6.7453 0.0397,-1.43426 0.49739,-4.83254 0.49739,-4.83254 0.16579,-1.36388 -0.36535,-10.04715 -0.69694,-12.23638 -0.33159,-2.18935 -1.89266,-10.72899 -2.38896,-12.98967 -0.49739,-2.26142 -2.29077,-8.32479 -2.88754,-9.79737 -0.59568,-1.47089 -2.25623,-4.95182 -2.85379,-6.06422 -0.59667,-1.11283 -3.48451,-4.12753 -3.48451,-4.12753 -0.92826,-0.89701 -3.25189,-1.64911 -3.8158,-1.68659 -0.56291,-0.0321 -1.72528,-0.64393 -2.22316,-0.93119 -0.49839,-0.28725 -3.74988,-2.54761 -5.01024,-2.94336 -1.26045,-0.39405 -4.47938,-1.21951 -6.13953,-1.47003 -1.65856,-0.25094 -6.40422,-2.76332 -7.29942,-3.26522 -0.89649,-0.50296 -5.41003,-3.0147 -7.20133,-3.80364 -1.79288,-0.79022 -7.73128,-3.66012 -9.4236,-4.70044 -1.69241,-1.04011 -5.44299,-3.84017 -5.44299,-3.84017 0,0 -0.23231,-2.04486 -0.23231,-2.54761 0,-0.50297 -0.39811,-2.97818 -0.43187,-3.66012 -0.0298,-0.68238 -0.26507,-3.80365 -0.19855,-4.48559 0.0695,-0.68237 0.53014,-2.18924 0.82898,-2.76332 0.29883,-0.57452 0.8955,-3.12171 1.06169,-4.05417 0.16679,-0.93332 0.49739,-3.66012 0.5649,-4.41425 0,0 0.96202,-3.55226 1.16067,-4.23324 0.19856,-0.68237 0.76346,-2.2972 0.76346,-2.2972 0,0 -0.0695,1.43521 0.82899,1.32736 0.47257,-0.0534 1.16147,-1.2195 1.39388,-1.7214 0.23132,-0.50297 0.72871,-1.93872 1.02794,-2.40495 0.29883,-0.46666 1.82595,-2.33286 2.0246,-2.799 0.19955,-0.46665 0.72971,-1.93882 0.8955,-2.51205 0.16679,-0.57451 -0.23231,-1.75782 -0.33159,-2.08224 -0.10027,-0.32356 0.0298,-2.15367 0.0298,-2.76343 0,-0.60975 0.3316,-1.2194 0.53115,-1.83 0.19856,-0.60869 0.0695,-1.97364 -0.69694,-2.69114 -0.76247,-0.71654 -1.92483,0.50296 -2.32294,1.00486 -0.39811,0.50297 -1.36013,2.44072 -1.26125,2.08234 0.10028,-0.3588 0.92926,-4.59258 1.02874,-5.92165 0.0993,-1.32725 0.0993,-3.94716 0.13303,-5.84936 0.0298,-1.90315 -0.49739,-5.88598 -0.92925,-7.71514 -0.43087,-1.83011 -1.792,-5.67027 -2.65513,-7.39157 -0.86174,-1.72215 -2.02371,-3.44441 -2.88675,-4.4134 -0.86274,-0.96856 -5.17672,-4.12635 -7.56568,-5.05871 -2.38886,-0.93331 -6.07193,-1.90315 -9.9207,-1.97448 l -0.53114,0 c -3.84886,0.0747 -7.53193,1.0401 -9.92158,1.97448 -2.38896,0.93225 -6.70265,4.08984 -7.56489,5.05871 -0.86274,0.96856 -2.02451,2.69125 -2.88596,4.4134 -0.86273,1.7213 -2.22405,5.56146 -2.65592,7.39157 -0.43186,1.83001 -0.96202,5.81285 -0.92826,7.71514 0.0298,1.9022 0.0298,4.52125 0.13304,5.84936 0.0993,1.32822 0.92826,5.56328 1.02793,5.92165 0.10028,0.35881 -0.86174,-1.57873 -1.25965,-2.08234 -0.39811,-0.5019 -1.55958,-1.7213 -2.32374,-1.00486 -0.76246,0.71761 -0.89649,2.08224 -0.69693,2.69114 0.19954,0.61082 0.53114,1.22036 0.53114,1.83 0,0.60976 0.13303,2.43987 0.0298,2.76343 -0.0993,0.3225 -0.49739,1.50645 -0.33258,2.08224 0.16579,0.57558 0.69694,2.04583 0.8955,2.51205 0.19955,0.4656 1.72617,2.33277 2.02539,2.799 0.29884,0.46666 0.79523,1.90315 1.02794,2.40495 0.23232,0.50083 0.92132,1.6648 1.39309,1.7214 0.89649,0.10785 0.82998,-1.32736 0.82998,-1.32736 0,0 0.56291,1.6144 0.76246,2.2972 0.19856,0.6813 1.16148,4.23324 1.16148,4.23324 0.0695,0.75392 0.3981,3.48093 0.56489,4.41425 0.1658,0.93225 0.76247,3.48008 1.0609,4.05417 0.29883,0.57452 0.76346,2.08138 0.82898,2.76332 0.0695,0.68238 -0.16679,3.80364 -0.19955,4.48559 -0.0298,0.68237 -0.43087,3.15737 -0.43087,3.66012 0,0.50296 -0.23231,2.54761 -0.23231,2.54761 0,0 -3.74899,2.79996 -5.4421,3.84017 -1.69242,1.0401 -7.6324,3.9115 -9.4237,4.70044 -1.79289,0.78915 -6.30444,3.30088 -7.20054,3.80364 -0.8955,0.5019 -5.64085,3.01384 -7.30021,3.26522 -1.65846,0.25095 -4.87749,1.07598 -6.13874,1.47003 -1.26035,0.39618 -4.51235,2.65632 -5.01023,2.94336 -0.49838,0.28726 -1.65936,0.89595 -2.22396,0.93119 -0.5649,0.0427 -2.88684,0.79022 -3.8158,1.68659 0,0 -2.88685,3.01385 -3.48441,4.12721 -0.59568,1.11251 -2.25702,4.59259 -2.85379,6.06421 -0.59667,1.47174 -2.38896,7.53595 -2.88684,9.79749 -0.49838,2.26057 -2.05747,10.79947 -2.38966,12.98956 -0.33159,2.1902 -0.86273,10.8725 -0.69694,12.23639 0,0 0.45371,3.39571 0.49838,4.83264 0.0496,1.43425 0.13304,5.26224 -0.0893,6.74529 -0.2194,1.48381 -1.01751,7.17673 -1.19364,8.27695 -0.17771,1.10119 -0.84089,5.02315 -1.06099,6.79496 -0.2214,1.76999 -0.75254,6.93752 -0.79622,9.23376 -0.0496,2.2972 0,8.13438 -0.13304,9.42523 -0.13303,1.29073 0.13304,3.78014 0,5.07173 -0.13303,1.2917 -1.06089,4.87963 -1.59174,6.26786 -0.53115,1.38812 -1.72617,3.97151 -2.52249,5.40662 -0.79623,1.43522 -2.12419,4.35338 -3.05324,6.69746 -0.92826,2.34408 -1.76876,4.64043 -2.34389,6.88882 -0.57681,2.2484 -1.99155,7.79865 -2.61085,10.43063 -0.6205,2.63123 -1.63603,7.08104 -2.21194,9.95147 -0.57483,2.86947 -2.25782,11.86574 -2.87474,15.21446 -0.6205,3.34969 -1.94726,11.81715 -2.43393,14.16133 -0.48548,2.34408 -1.28289,7.2724 -2.07921,9.76086 -0.79622,2.48845 -2.74279,7.08189 -3.49572,8.46745 -0.75254,1.38823 -1.63682,2.96612 -1.94648,3.8768 -0.31074,0.90876 -0.26507,2.67896 -0.66318,3.34872 -0.39811,0.66956 -1.50498,1.81784 -3.18518,2.58414 -1.6819,0.7646 -3.80459,1.91266 -5.39792,2.96601 -1.59344,1.05291 -4.86707,3.44526 -6.15006,4.64128 -1.28289,1.19601 -2.74279,3.30089 -3.49563,3.9698 -0.75154,0.66956 -1.59184,1.0038 -2.03503,1.29073 -0.44278,0.28726 -1.19363,1.34039 -1.85881,1.81794 -0.66318,0.47734 -1.41562,0.86285 -2.52159,1.38909 -1.10597,0.52645 -2.43314,0.95788 -2.9206,1.1942 -0.48548,0.24027 -2.12508,1.14721 -1.15105,2.87117 0.97294,1.72141 2.74279,2.48761 4.42469,2.44072 1.68109,-0.0427 4.11423,-0.47733 5.35294,-1.29083 1.23871,-0.81265 3.00827,-2.15272 3.67185,-2.63113 0.66318,-0.47733 1.81373,-1.48306 2.47652,-1.62561 0.66319,-0.14416 1.01911,-0.28726 1.01911,-0.28726 0,0 -0.44279,2.67896 -0.39811,3.63663 0.0496,0.95788 0.17671,2.67897 0.0496,3.58793 -0.13303,0.90876 -0.26507,2.44232 -0.48547,3.54095 -0.2204,1.10022 -1.54836,4.16191 -1.99155,5.40577 -0.44278,1.24471 -1.4591,4.01764 -1.90229,5.5024 -0.44278,1.48125 -1.23871,3.7305 -1.59174,4.9752 -0.35344,1.24643 -0.92926,3.82629 -0.97294,5.26321 -0.0496,1.43693 0.30975,3.82799 0.75254,4.59248 0.44278,0.76673 1.37055,2.05714 3.00737,0 1.63771,-2.05704 2.96567,-5.55014 3.67264,-7.32024 0.70687,-1.76999 1.45831,-4.44896 1.99075,-5.88503 0.53214,-1.43607 1.0191,-3.25305 1.4599,-3.82713 0.4418,-0.57345 1.54836,-1.38823 1.54836,-0.14417 0,1.24642 -0.84089,4.83435 -1.10597,5.8877 -0.26507,1.05185 -1.06169,4.68827 -1.15025,5.64497 -0.0894,0.95788 -0.53114,3.06265 -0.66319,3.73231 -0.13303,0.66955 -0.57582,3.01395 -0.62049,3.39486 -0.0496,0.3823 -0.35344,2.91816 -0.0496,3.54009 0.30876,0.6215 1.01751,2.58413 2.38896,1.72226 1.37224,-0.8607 2.03582,-1.91447 2.3012,-2.82345 0.26507,-0.90875 1.10517,-3.82713 1.32637,-4.73599 0.2204,-0.90877 0.66318,-2.19981 1.01831,-3.25305 0.35244,-1.05186 0.57482,-2.96611 0.88457,-4.16202 0.30976,-1.19602 0.88657,-3.15822 1.19364,-3.87498 0.31075,-0.71654 0.75353,-1.86578 1.15104,-2.34407 0.39812,-0.47948 1.45981,-1.86664 1.41643,-0.38124 -0.0496,1.48124 -0.53016,3.49226 -0.6205,4.35242 -0.0893,0.86071 -0.17672,2.87129 -0.17672,4.01935 0,1.14818 -0.39811,3.39657 -0.44279,4.35424 -0.0397,0.95788 -0.57482,2.7268 -0.48547,4.01764 0.0893,1.29159 -0.13303,3.20692 0.17771,3.97067 0.30876,0.76459 0.79523,2.10487 2.07921,1.14805 1.28378,-0.9568 2.3004,-3.44526 2.56587,-4.78383 0.26508,-1.34039 0.39712,-2.58424 0.79523,-3.68447 0.39811,-1.09948 0.75254,-2.39203 1.10597,-3.15833 0.35344,-0.7646 0.6205,-2.15272 0.75254,-3.30089 0.13303,-1.14721 0.17672,-2.10488 0.44279,-3.20606 0.26507,-1.10118 0.39811,-2.05704 0.75353,-2.77379 0.35343,-0.71867 0.92826,-1.19602 1.37144,-0.95681 0.44279,0.23707 0.6195,2.10487 0.70786,2.7268 0.0894,0.6215 0.0894,3.68276 0.17672,4.49691 0.0894,0.81371 0.44279,3.63577 0.53115,4.30639 0.0893,0.66955 0.17771,2.29538 0.48547,2.96601 0.31075,0.66955 1.72607,1.19601 2.39045,-0.0534 0.66319,-1.24471 1.23792,-3.25305 1.37065,-4.83435 0.13304,-1.57693 0.0496,-5.7885 0.17771,-7.65513 0.13304,-1.86663 0.21941,-5.35792 0.35245,-6.65048 0.13303,-1.29255 1.15174,-3.44526 1.41721,-4.87962 0.26508,-1.43425 0.97294,-4.01935 1.10597,-6.17292 0.13304,-2.15283 0.0893,-7.5586 0.13304,-10.33409 0.0496,-2.77379 -0.2214,-6.45922 -0.13304,-8.037 0.0893,-1.57778 0.39811,-3.01384 1.10597,-4.06719 0.70886,-1.05185 2.9206,-6.21906 3.67106,-8.94767 0.75353,-2.72681 1.81453,-5.11874 2.78776,-7.27059 0.97294,-2.15197 3.67185,-7.27241 4.86797,-10.19068 1.19284,-2.91731 2.07921,-5.35792 3.58329,-8.85103 1.50329,-3.49225 2.43234,-5.74161 3.00747,-7.17672 0.57582,-1.43522 2.12428,-5.50241 3.27364,-8.42143 1.15104,-2.91731 1.54836,-4.30469 2.56587,-7.65342 1.01752,-3.35044 1.32637,-4.21156 1.63602,-6.12422 0.31075,-1.91448 0.70886,-3.97066 1.0617,-6.36343 0.35343,-2.39204 0.57483,-3.96981 1.15025,-5.50241 0.57681,-1.5308 1.59264,-2.77379 2.03582,-4.20986 0.44279,-1.43511 0.75254,-2.87118 0.88558,-3.92453 0.13204,-1.05185 0.35343,-3.25305 0.26508,-5.11958 -0.0894,-1.86663 -0.0894,-4.78394 -0.31075,-6.12433 -0.2204,-1.33943 -0.17672,-3.63663 -0.17672,-3.63663 0,0 2.21195,-9.09024 2.56588,-11.24306 0.35343,-2.15358 0.97294,-4.78384 1.45901,-7.75166 0.48646,-2.966 0.79622,-7.65331 0.79622,-10.09403 0,-2.44061 0,-7.51246 -0.0496,-9.61734 -0.0496,-2.10498 -0.17771,-8.13353 -0.17771,-8.13353 0,0 1.4599,3.39657 1.90229,5.5023 0.44278,2.10499 0.30975,8.18052 0.30975,8.18052 0,0 -0.17672,3.78015 0.0496,4.64127 0.2204,0.86071 0.79424,3.49226 1.0601,4.40123 0.26508,0.90875 -0.3981,3.49396 -0.30875,4.68987 0.0893,1.19601 0.44179,3.82714 0.70687,4.4969 0.26507,0.67062 0.35443,2.4876 0.22139,3.44527 -0.13303,0.9568 -0.39712,3.39572 -0.0893,4.92832 0.31074,1.5309 1.8597,8.27705 2.3004,9.37643 0.44279,1.10032 1.90309,5.74161 2.25702,7.12888 0.35343,1.38651 0.6205,4.25855 0.70786,5.83729 0.0893,1.57777 -0.70786,7.79779 -0.84089,9.13807 -0.13304,1.33868 -0.79523,4.78395 -0.97294,6.93752 -0.17672,2.15368 -0.57483,4.97702 -0.48548,6.69842 0.0894,1.7213 0.53015,6.17293 0.57483,7.32025 0.0397,1.1472 0.0397,4.87951 -0.17672,6.02854 -0.22139,1.14988 -1.54915,7.84648 -1.90229,9.66432 -0.35443,1.81794 -1.54836,7.65513 -1.681,9.28086 -0.13304,1.62731 -0.31075,4.92821 -0.53114,6.07638 -0.2214,1.14732 -1.85971,5.26321 -2.43315,7.55859 -0.57482,2.29624 -1.6377,8.03785 -1.59184,10.09488 0.0496,2.05704 0.48548,8.99371 0.70786,11.05085 0.2214,2.05874 0.48548,8.46831 0.57483,10.76551 0.0894,2.29709 0.6205,13.68282 1.2395,18.46676 0.61951,4.78384 1.63682,13.2514 2.25623,16.45832 0.62049,3.20702 1.76955,8.8033 2.16766,10.7151 0.39811,1.91448 3.93802,18.99472 4.69016,22.39045 0.75253,3.39741 3.67254,16.60268 4.02647,18.23011 0.35343,1.62562 1.23871,5.07088 1.23871,5.07088 0,0 -0.0496,7.12804 -0.30975,9.42524 -0.26508,2.29795 -0.97294,10.38278 -0.92925,13.25225 0.0496,2.86947 0.26507,5.40587 0,7.27069 -0.26508,1.86654 -0.92926,5.21708 -1.37145,6.26861 -0.44279,1.05187 -1.59175,3.34873 -1.63761,5.26322 -0.0496,1.91266 0.62049,4.16202 0.57482,5.30923 -0.0496,1.14732 -0.57482,4.64129 -0.48547,7.3202 0.0893,2.67897 -0.0496,10.76381 0.39811,14.87714 0.44278,4.1159 0.79622,9.71389 1.23871,12.9191 0.44278,3.20699 3.36219,13.30189 3.9815,15.69381 0.6195,2.39204 3.31871,13.72982 4.07075,16.26624 0.75254,2.5363 4.8221,13.5871 5.57493,16.55226 0.75254,2.96772 1.99155,6.98537 2.07842,9.61832 0.0894,2.63027 -0.48548,7.03321 -0.57383,8.61012 -0.0894,1.5796 -0.53115,5.64675 -0.35344,7.08357 0.17672,1.43437 0.97194,4.11333 0.75154,5.35804 -0.2204,1.24472 -1.19443,5.07089 -1.90229,6.41128 -0.70786,1.33868 -2.83204,3.53753 -3.80369,4.87781 -0.97294,1.3404 -3.89383,4.16203 -4.6017,5.64509 -0.70885,1.48294 -1.59254,3.39743 -1.94647,3.92533 -0.35343,0.52757 -1.28378,1.00278 -2.03503,1.53091 -0.75254,0.52539 -2.07921,1.48295 -2.34458,2.10487 -0.26508,0.62153 -0.26508,1.24472 -0.53114,1.7213 -0.26508,0.47949 -1.28299,1.0038 -1.32718,1.96061 -0.0496,0.95899 0.17871,2.01091 1.37135,2.585 1.19444,0.57455 1.99234,0.47949 1.99234,0.47949 0,0 0.2204,1.10205 0.8409,1.5309 0.6205,0.43143 1.54836,0.38228 2.03503,0.38228 0.48547,0 1.06089,0 1.06089,0 0,0 0.35344,1.33856 1.15105,1.67345 0.79523,0.33534 2.34548,0.33534 2.96478,0 0.6205,-0.33529 1.59185,-1.09937 1.59185,-1.09937 l 1.28289,2.24754 c 0,0 1.0183,0.81375 2.3004,0.28727 1.28378,-0.52647 2.3004,-1.53089 2.3004,-1.53089 0,0 0.83991,1.91276 2.87553,2.34419 2.03503,0.4293 5.08747,0.47949 7.1225,-0.57449 2.03493,-1.05296 2.38966,-2.15541 3.53911,-2.58512 1.15015,-0.43142 3.49563,-1.76999 4.51314,-3.34959 1.01752,-1.57874 1.54837,-4.83351 1.37145,-6.89054 -0.17771,-2.05629 -0.8409,-3.15652 -0.97294,-5.69293 -0.13303,-2.53625 -0.17771,-4.16197 0,-5.5501 0.17672,-1.38823 0.53015,-3.78016 0.53015,-5.50242 0,-1.72129 -0.70786,-4.64129 -0.84089,-6.07382 -0.13304,-1.43425 -0.26508,-3.8767 -0.26508,-3.8767 0,0 1.06169,-1.67345 1.32717,-3.15651 0.26508,-1.48295 0.17672,-3.30261 -0.13304,-5.07088 -0.30975,-1.77183 -0.88458,-2.6808 -1.23871,-4.87964 -0.35343,-2.20142 -1.01751,-4.25857 -1.23871,-6.36345 -0.22039,-2.10493 -0.88557,-10.14182 -0.92925,-12.9183 -0.0496,-2.77378 -0.0496,-7.46292 0.31074,-11.14739 0.35344,-3.68265 0.79523,-9.61559 1.10598,-13.30006 0.30975,-3.68277 0.39811,-10.28627 0.35343,-14.01859 -0.0496,-3.7306 -0.26508,-9.71217 -0.66318,-12.34336 -0.39713,-2.62849 -1.37056,-6.74616 -1.94648,-9.47297 -0.57483,-2.72681 -1.41572,-5.071 -1.63602,-7.03321 -0.2214,-1.9605 -0.35443,-4.68741 -0.35443,-6.31474 0,-1.62744 0.0894,-4.54476 0.0894,-4.54476 0,0 1.15015,-3.01556 2.43225,-6.07639 1.28378,-3.06261 2.3005,-7.65508 2.43314,-10.90997 0.13303,-3.25123 0.13303,-4.63946 0.57483,-6.88881 0.44179,-2.24756 1.06179,-4.54465 1.37144,-7.22372 0.30975,-2.68067 0,-4.5473 -0.22139,-6.65047 -0.2204,-2.10402 -0.26508,-4.59344 -0.13204,-6.5061 0.13204,-1.91437 0.75253,-6.69831 0.84089,-8.94757 0.0894,-2.24765 -0.35442,-7.17586 -0.39811,-9.90277 -0.0397,-2.72852 -0.31074,-8.99541 -0.44278,-12.67817 -0.13304,-3.68361 -0.17772,-7.27155 0.22039,-10.47847 0.39812,-3.20616 1.0617,-8.03699 1.45991,-11.43442 0.39811,-3.39743 0.75154,-9.18688 0.97294,-13.63497 0.22039,-4.45078 0.0496,-13.35061 -0.26508,-17.1769 -0.30975,-3.82617 -0.88657,-7.99086 -1.2395,-9.94879 -0.35443,-1.96222 -0.57483,-3.49397 -0.57483,-3.49397 0,0 0.92826,0.23814 1.6811,-0.14309 0.75551,-0.3823 1.37462,-1.0038 1.37462,-1.0038 l 0,0 z" />
    <path
       style="fill:#f4d7d7"
       d="m 320.86823,830.38987 c -2.16438,-1.33766 -0.18483,-6.23332 6.0063,-14.85432 8.41706,-11.72054 9.1287,-14.34022 8.03749,-29.58765 -0.65846,-9.20072 -4.76857,-29.50769 -9.13357,-45.1266 -7.53481,-26.9612 -7.83779,-30.35843 -5.98814,-67.14286 1.70184,-33.84503 1.17342,-42.17743 -4.17844,-65.88769 -8.29322,-36.74125 -10.95963,-76.66557 -6.68196,-100.04912 4.71274,-25.76188 5.36872,-64.92833 1.61889,-96.65938 -3.29705,-27.8996 -6.40594,-37.38022 -6.40594,-19.535 0,30.90429 -11.25277,80.5236 -25.71367,113.38495 -7.12596,16.19324 -11.49118,30.4957 -11.59385,37.98673 -0.17423,12.71334 -4.6615,38.38688 -5.22106,29.87182 -0.53353,-8.11897 -6.00453,-5.70334 -6.47094,2.85715 l -0.42809,7.85714 -1.19026,-7.85714 c -1.43088,-9.44552 -6.38722,-10.4772 -6.86303,-1.42857 -0.27126,5.15851 -0.75557,4.73517 -2.45138,-2.14286 l -2.11334,-8.57143 -3.59325,9.43157 c -4.56858,11.9916 -7.30617,9.77597 -3.47392,-2.81157 1.58691,-5.21243 3.69386,-13.11546 4.68212,-17.56226 1.63905,-7.37517 1.22254,-7.91945 -4.7434,-6.19848 -4.89254,1.41131 -3.16445,-1.29266 6.85944,-10.73309 7.36981,-6.94086 14.13019,-15.72297 15.02306,-19.5158 0.89287,-3.79285 4.11348,-19.22841 7.15692,-34.30125 3.04343,-15.07284 7.42724,-32.42998 9.74179,-38.57143 4.62792,-12.27975 7.29928,-31.1241 9.13259,-64.42333 0.66099,-12.00568 2.82209,-26.79139 4.80246,-32.85715 3.27586,-10.03378 5.85584,-12.11468 28.60066,-23.06802 24.91648,-11.99915 24.99994,-12.07551 24.9824,-22.85714 -0.01,-5.94977 -1.80993,-14.25311 -4.00056,-18.45187 -5.54126,-10.62088 -1.90645,-41.62814 5.51607,-47.05562 6.81951,-4.98655 21.61325,-4.98655 28.43276,0 6.15334,4.49944 11.45883,38.14426 6.88422,43.65634 -1.49971,1.80704 -3.50418,9.84973 -4.45437,17.87264 l -1.72763,14.58712 24.93625,11.68552 c 30.92222,14.49064 32.07143,16.7714 36.29024,72.02306 1.70417,22.31863 4.81417,43.93197 6.91112,48.02965 2.09695,4.09767 6.48569,20.81196 9.75276,37.14286 8.18735,40.92554 9.98582,45.30605 23.71677,57.76659 6.62513,6.01215 9.65951,10.17883 6.74306,9.25926 -4.67198,-1.47311 -5.1353,-0.39454 -3.89577,9.0688 0.77377,5.9074 2.26958,13.95503 3.32401,17.8836 1.69937,6.33143 1.35131,6.16914 -3.06392,-1.42857 l -4.98107,-8.57143 -2.04123,7.14286 c -1.30213,4.55657 -2.14434,5.33245 -2.32602,2.14285 -0.41795,-7.33762 -5.93224,-6.10448 -6.38818,1.42858 l -0.38909,6.42857 -1.2382,-6.42857 c -1.60344,-8.32489 -6.44955,-8.32489 -6.91266,0 -0.51627,9.28051 -4.89362,-17.10032 -5.14489,-31.00652 -0.12489,-6.91211 -5.27134,-23.90906 -12.544,-41.42858 -13.2204,-31.84732 -16.94075,-46.49766 -22.05516,-86.85062 -1.79249,-14.14286 -3.56794,-27.64286 -3.94544,-30 -0.3775,-2.35714 -1.63879,6 -2.80286,18.57143 -1.16407,12.57143 -3.30407,26.55816 -4.75555,31.08163 -2.85454,8.89604 1.05083,65.12254 5.61998,80.912 3.49294,12.07046 -0.57767,57.49748 -8.371,93.41823 -5.36866,24.74508 -5.8811,33.16214 -4.1108,67.52188 1.98624,38.55089 1.85744,39.83203 -7.20181,71.63792 -11.03245,38.73354 -10.74989,53.55248 1.32296,69.3808 4.4001,5.76883 7.20126,11.28771 6.22481,12.26414 -3.47662,3.47663 -26.92244,4.32257 -28.94841,1.04449 -1.10224,-1.78346 -1.88549,-12.50395 -1.74055,-23.82329 0.26817,-20.94431 2.69221,-99.27677 3.5546,-114.86637 0.2608,-4.71429 -1.00306,-15.40012 -2.80854,-23.74629 -1.80549,-8.34614 -3.43892,-40.16757 -3.62984,-70.71428 -0.24718,-39.54612 -1.28737,-55.53897 -3.61223,-55.53786 -2.30831,0.001 -3.52028,16.45491 -4.13597,56.15006 -0.47898,30.88165 -2.26327,62.70237 -3.96509,70.71271 -1.70181,8.01032 -2.9291,17.13566 -2.72731,20.27852 0.2018,3.14285 1.07558,25.64285 1.94174,50 0.86616,24.35714 1.90143,53.28571 2.30061,64.28571 0.95931,26.43506 -1.1071,30.39166 -15.43111,29.54649 -6.21181,-0.36652 -12.74698,-1.56426 -14.52258,-2.66166 l 0,0 z"
       id="path9088"
       inkscape:connector-curvature="0" />
  </g>
</svg>
